<?xml version="1.0" encoding="UTF-8" standalone="no"?>
<!-- Created with Inkscape (http://www.inkscape.org/) -->

<svg
   xmlns:dc="http://purl.org/dc/elements/1.1/"
   xmlns:cc="http://creativecommons.org/ns#"
   xmlns:rdf="http://www.w3.org/1999/02/22-rdf-syntax-ns#"
   xmlns:svg="http://www.w3.org/2000/svg"
   xmlns="http://www.w3.org/2000/svg"
   xmlns:sodipodi="http://sodipodi.sourceforge.net/DTD/sodipodi-0.dtd"
   xmlns:inkscape="http://www.inkscape.org/namespaces/inkscape"
   width="744.09448819"
   height="1052.3622047"
   id="svg2"
   version="1.1"
   inkscape:version="0.48.2 r9819"
   sodipodi:docname="New document 1">
  <defs
     id="defs4" />
  <sodipodi:namedview
     id="base"
     pagecolor="#ffffff"
     bordercolor="#666666"
     borderopacity="1.0"
     inkscape:pageopacity="0.0"
     inkscape:pageshadow="2"
     inkscape:zoom="0.49497475"
     inkscape:cx="399.74163"
     inkscape:cy="718.19598"
     inkscape:document-units="px"
     inkscape:current-layer="layer1"
     showgrid="false"
     inkscape:snap-midpoints="false"
     inkscape:snap-object-midpoints="false"
     inkscape:snap-center="false"
     inkscape:window-width="899"
     inkscape:window-height="651"
     inkscape:window-x="28"
     inkscape:window-y="0"
     inkscape:window-maximized="0" />
  <metadata
     id="metadata7">
    <rdf:RDF>
      <cc:Work
         rdf:about="">
        <dc:format>image/svg+xml</dc:format>
        <dc:type
           rdf:resource="http://purl.org/dc/dcmitype/StillImage" />
        <dc:title></dc:title>
      </cc:Work>
    </rdf:RDF>
  </metadata>
  <g
     inkscape:label="Layer 1"
     inkscape:groupmode="layer"
     id="layer1">
    <rect
       style="color:#000000;fill:#de0000;fill-opacity:1;fill-rule:nonzero;stroke:none;stroke-width:3.42139553999999979;stroke-linecap:round;stroke-linejoin:miter;stroke-miterlimit:4;stroke-opacity:1;stroke-dasharray:none;stroke-dashoffset:0;marker:none;visibility:visible;display:inline;overflow:visible;enable-background:accumulate"
       id="rect2985"
       width="459.74133"
       height="252.66006"
       x="127.21827"
       y="191.65126"
       ry="32.787949" />
    <path
       style="color:#000000;fill:#ffffff;fill-opacity:1;fill-rule:nonzero;stroke:#550000;stroke-width:7.5;stroke-linecap:round;stroke-linejoin:miter;stroke-miterlimit:4;stroke-opacity:1;stroke-dasharray:none;stroke-dashoffset:0;marker:none;visibility:visible;display:inline;overflow:visible;enable-background:accumulate"
       d="m 176,223.5625 c -11.21814,0.19938 -19.3061,11.58661 -17.53125,22.375 0.14849,72.49541 -0.29524,145.02669 0.21875,217.5 1.52148,13.30457 18.95564,20.28049 29.3125,11.84375 9.08124,-6.18739 7.48631,-18.25614 7.34375,-27.75 0.2926,-16.38549 -0.58458,-34.4309 0.4375,-49.78125 24.72068,8.37054 54.11635,4.22994 73.59992,-13.71688 1.81305,-0.97505 4.77262,-6.01812 4.68133,-1.37687 2.70389,12.74465 20.00625,18.24189 29.65625,9.5625 9.82948,-7.79077 5.87615,-21.47462 6.625,-32.21875 -0.15052,-39.80575 0.29798,-79.66355 -0.21875,-119.4375 -1.35843,-12.96428 -18.16645,-20.20801 -28.5625,-12.4375 -8.52658,5.23838 -8.83108,16.3064 -8.09375,25.25 0,25.10417 0,50.20833 0,75.3125 C 261.95374,344.17432 247.48289,360.68572 227.5,364 c -10.74811,0.0416 -23.25091,1.75337 -32.15625,-5.53125 C 195.19303,318.69427 195.642,278.86768 195.125,239.125 193.94053,229.98209 185.18329,222.94825 176,223.5625 z"
       id="rect2987"
       inkscape:connector-curvature="0" />
    <path
       style="color:#000000;fill:#ffffff;fill-opacity:1;fill-rule:nonzero;stroke:#550000;stroke-width:7.5;stroke-linecap:round;stroke-linejoin:miter;stroke-miterlimit:4;stroke-opacity:1;stroke-dasharray:none;stroke-dashoffset:0;marker:none;visibility:visible;display:inline;overflow:visible;enable-background:accumulate"
       d="m 381.88753,250.73207 c -0.0826,0.002 -0.16723,0.0273 -0.25,0.0312 -0.67582,0.031 -1.34402,0.11967 -2,0.25 -0.25046,0.0499 -0.50002,0.0916 -0.75,0.15625 -0.27229,0.0707 -0.54576,0.16264 -0.8125,0.25 -0.0637,0.0208 -0.1239,0.0407 -0.1875,0.0625 -0.0224,0.008 -0.0402,0.0235 -0.0625,0.0312 -0.3363,0.11745 -0.67446,0.23154 -1,0.375 -0.0941,0.0412 -0.1885,0.0819 -0.28125,0.125 -0.22509,0.10541 -0.43729,0.22607 -0.65625,0.34375 -0.16287,0.0868 -0.34188,0.15723 -0.5,0.25 -0.0648,0.0384 -0.12332,0.0855 -0.1875,0.125 -0.35159,0.21423 -0.70469,0.44508 -1.03125,0.6875 -0.0413,0.031 -0.084,0.0622 -0.125,0.0937 -2.44135,1.85729 -4.13205,4.46144 -4.875,7.375 l -40.25,117.5625 c -2.4216,7.07566 1.33059,14.73465 8.40625,17.15625 7.07566,2.4216 14.7034,-1.33059 17.125,-8.40625 l 7.78125,-22.75 40.0625,0 7.78125,22.75 c 2.4216,7.07566 10.04934,10.82785 17.125,8.40625 7.07566,-2.4216 10.82785,-10.08059 8.40625,-17.15625 l -40.25,-117.5625 c -0.53438,-2.09563 -1.58456,-4.0384 -3.03125,-5.65625 -0.0438,-0.0491 -0.0806,-0.1079 -0.125,-0.15625 -0.5645,-0.61273 -1.16339,-1.15119 -1.84375,-1.65625 -0.54501,-0.40952 -1.12039,-0.74092 -1.71875,-1.0625 -0.21584,-0.11506 -0.43226,-0.23953 -0.65625,-0.34375 -0.0933,-0.0437 -0.18697,-0.0834 -0.28125,-0.125 -0.3263,-0.14298 -0.65765,-0.25588 -1,-0.375 -0.0828,-0.0289 -0.16665,-0.0665 -0.25,-0.0937 -0.52288,-0.17054 -1.03631,-0.30148 -1.5625,-0.40625 -0.65598,-0.13033 -1.32418,-0.219 -2,-0.25 -0.20943,-0.01 -0.4165,-0.031 -0.625,-0.0312 -0.1261,1.4e-4 -0.24854,-0.004 -0.375,0 z m 0.375,55.21875 10.34375,30.21875 -20.6875,0 10.34375,-30.21875 z"
       id="rect3780"
       inkscape:connector-curvature="0" />
    <path
       style="color:#000000;fill:#ffffff;fill-opacity:1;fill-rule:nonzero;stroke:#550000;stroke-width:7.5;stroke-linecap:round;stroke-linejoin:miter;stroke-miterlimit:4;stroke-opacity:1;stroke-dasharray:none;stroke-dashoffset:0;marker:none;visibility:visible;display:inline;overflow:visible;enable-background:accumulate"
       d="m 467.57503,247.85707 c -8.22972,-0.26711 -14.49211,7.88867 -13.40485,15.76262 0.0799,33.3649 -0.0768,66.73624 0.15312,100.09705 0.44556,13.26693 6.22663,28.04178 19.09524,33.7146 4.35513,1.80189 8.44699,1.80109 13.13183,1.69484 14.9978,-0.0272 23.68216,-0.0544 38.67996,-0.0816 21.00323,-1.92356 30.0831,-13.91575 29.73827,-34.40057 -0.0735,-28.98752 0.0373,-75.40495 -0.15167,-104.38947 -0.55264,-9.81032 -13.11866,-15.60571 -20.9891,-9.78366 -5.74222,3.45565 -6.25153,10.40795 -5.93537,16.40517 0.6747,37.66224 0.19784,71.76447 0.17617,104.72844 -15.94792,0.0312 -30.63313,0.31504 -46.58105,0.34624 -0.16816,-37.46166 -0.3178,-78.49083 -0.51441,-111.97784 -0.56548,-6.72232 -6.6402,-12.24682 -13.39814,-12.11586 z"
       id="rect3780-9"
       inkscape:connector-curvature="0"
       sodipodi:nodetypes="ccccccccccccccc" />
  </g>
</svg>
